PathFileType	4	(X/Y/Z)	G:\TennisProject\Miami_Dimitrov_Sinner_masked_Sports2D\Miami_Dimitrov_Sinner_masked_Sports2D_m_person03.trc
DataRate	CameraRate	NumFrames	NumMarkers	Units	OrigDataRate	OrigDataStartFrame	OrigNumFrames
25	25	12	22	m	25	436	499
Frame#	Time	Hip			RHip			RKnee			RAnkle			RBigToe			RSmallToe			RHeel			LHip			LKnee			LAnkle			LBigToe			LSmallToe			LHeel			Neck			Head			Nose			RShoulder			RElbow			RWrist			LShoulder			LElbow			LWrist		
		X1	Y1	Z1	X2	Y2	Z2	X3	Y3	Z3	X4	Y4	Z4	X5	Y5	Z5	X6	Y6	Z6	X7	Y7	Z7	X8	Y8	Z8	X9	Y9	Z9	X10	Y10	Z10	X11	Y11	Z11	X12	Y12	Z12	X13	Y13	Z13	X14	Y14	Z14	X15	Y15	Z15	X16	Y16	Z16	X17	Y17	Z17	X18	Y18	Z18	X19	Y19	Z19	X20	Y20	Z20	X21	Y21	Z21	X22	Y22	Z22
436	17.44	9.472106956340834	2.0516260513503832	0.0	9.373049597341513	2.036075789345665	0.0	9.360266015954112	1.6851773576388673	0.0	9.363514624882965	1.317124308760489	0.0	9.32827198587166	1.2304498691718695	0.0	9.287533839595117	1.2408782788240345	0.0	9.378934700874195	1.2655698679108387	0.0	9.566554782088877	2.0355097360519343	0.0	9.621291215129531	1.6868936793473603	0.0	9.666625850025122	1.3226755126853762	0.0	9.679219856765757	1.2439059409278577	0.0	9.716359762627818	1.252136415880746	0.0	9.666478184021717	1.2688844580839442	0.0	9.456722147533457	2.565544333193922	0.0	9.442148211423362	2.7972214022742823	0.0	9.444906884789173	2.6580734592483415	0.0	9.285957833218278	2.474960606358222	0.0	9.275597041877461	2.2709802686766505	0.0	9.410370436323126	2.1776337310472895	0.0	9.63564012097455	2.486111033155345	0.0	9.673280632630641	2.2807579941043423	0.0	9.556265753655342	2.1726645182968554	0.0
437	17.48	9.470611857223458	2.0510341756920996	0.0	9.371583697259204	2.0373219481411122	0.0	9.36022612126437	1.6850852006289159	0.0	9.364550087368173	1.3160809416058388	0.0	9.333024373400082	1.2259725865269762	0.0	9.289159686218674	1.237341115866456	0.0	9.376832758321566	1.2658202669446297	0.0	9.565414680697003	2.0358011695368705	0.0	9.621953867216316	1.686650243068448	0.0	9.666736233128269	1.321337104675971	0.0	9.679506987484539	1.239517754597272	0.0	9.716363452484137	1.2462548099487865	0.0	9.667121550914784	1.2668305258930816	0.0	9.456833088899623	2.563195099027768	0.0	9.440486065668505	2.796085160263851	0.0	9.443457495672352	2.655562586876166	0.0	9.28475637453697	2.476318725847695	0.0	9.273267823034582	2.270360946479494	0.0	9.41143543411019	2.181290748051777	0.0	9.63535823467109	2.4868757488033126	0.0	9.672265103577457	2.280103635435191	0.0	9.557819387996009	2.174167257723907	0.0
438	17.52	9.469162710076551	2.049192601705197	0.0	9.37009654694571	2.0378535525580217	0.0	9.360085691858183	1.6833128292765827	0.0	9.364849177008745	1.3135653316178368	0.0	9.336175424534524	1.2190434371512462	0.0	9.287701847849052	1.2306658156339676	0.0	9.376294078329336	1.2632837308655729	0.0	9.564988043424822	2.0351923249929786	0.0	9.622225379861046	1.6847858710629293	0.0	9.666139308168464	1.3175158062852232	0.0	9.681419880798916	1.233419201792461	0.0	9.717888895664359	1.2386049025136605	0.0	9.665024059337904	1.2609453121491438	0.0	9.456474621798575	2.5609959912223315	0.0	9.438778292149273	2.7953657785028203	0.0	9.441767245690254	2.654054585359283	0.0	9.284886551870352	2.4772099793976268	0.0	9.272009184251997	2.2692939165316917	0.0	9.411278269341397	2.1814038211386766	0.0	9.636396822651838	2.4855070808669004	0.0	9.670440471269153	2.2764541325185403	0.0	9.557107263715828	2.1740381418408097	0.0
439	17.56	9.468322521870922	2.0476044832310487	0.0	9.369604331076486	2.034935037799071	0.0	9.359186417324226	1.6804334864392731	0.0	9.364644679741899	1.3128338039020946	0.0	9.345756433515453	1.2210550785157535	0.0	9.288554159673229	1.2311710080346605	0.0	9.380232363074882	1.2607320883871163	0.0	9.564068409126394	2.0324894318065128	0.0	9.620893649421152	1.6819215736526192	0.0	9.662946157239771	1.3165613011474842	0.0	9.680960852130537	1.2375822782824073	0.0	9.718074499737057	1.2441068739795111	0.0	9.662170896391212	1.2628315373634882	0.0	9.454464793326466	2.561581920001619	0.0	9.437906311567689	2.7939280978348946	0.0	9.440848402076357	2.655963601858848	0.0	9.285230773974588	2.4744959929599752	0.0	9.273356993874287	2.2692495423958294	0.0	9.409710820664563	2.1774557869659006	0.0	9.63464311104014	2.4843897270887823	0.0	9.668587447578929	2.2751227789982855	0.0	9.550139539616177	2.172421456643546	0.0
440	17.6	9.468605244898836	2.046822541541444	0.0	9.369111766621629	2.0308859963426027	0.0	9.357946914884627	1.6793036753308366	0.0	9.36429495709994	1.3135556872079117	0.0	9.355550873559485	1.2270729903333497	0.0	9.291558144557158	1.2354486285733615	0.0	9.382065088022083	1.2599904608308645	0.0	9.563599053416137	2.0305439207045324	0.0	9.619940168842975	1.6808051971497333	0.0	9.660646016135582	1.3185980608322116	0.0	9.681754163625415	1.2429514958015768	0.0	9.718742289974603	1.2512851665033948	0.0	9.65792010959251	1.2664422133370306	0.0	9.453368371484588	2.5651412805910714	0.0	9.437464515085784	2.7943171200757826	0.0	9.441366699298054	2.661305334033083	0.0	9.283868549004456	2.4739994263789864	0.0	9.273314853275913	2.271519230960647	0.0	9.408599602065342	2.1771995659581056	0.0	9.632915426753058	2.4870045082244423	0.0	9.667552182861332	2.2786212089734383	0.0	9.54407726980124	2.1724580872938533	0.0
441	17.64	9.469759818429637	2.046314948641894	0.0	9.367682751610472	2.029588638776373	0.0	9.357418989162342	1.6809476047271308	0.0	9.364335236018155	1.3133281298702417	0.0	9.353056247571166	1.22603248062613	0.0	9.292323418527687	1.234206108532611	0.0	9.379410254286848	1.2601761133403773	0.0	9.564897633768558	2.0310737285652753	0.0	9.621305378459851	1.682468823191866	0.0	9.661764676283836	1.3195346285176917	0.0	9.684161504224257	1.2387347841013718	0.0	9.72071773991884	1.2468709691974544	0.0	9.65221550090069	1.2622158702814705	0.0	9.454220412693841	2.5678799253742834	0.0	9.437183058392614	2.797214710157151	0.0	9.44286274280406	2.6653664630512974	0.0	9.281409162992583	2.4791299431853924	0.0	9.271395176407495	2.274385307605427	0.0	9.409190627866021	2.181160387545176	0.0	9.634903785399262	2.4907141501458034	0.0	9.667279310623247	2.2807829132006634	0.0	9.54618526016093	2.1735018348651924	0.0
442	17.68	9.470633342506387	2.0463043483675145	0.0	9.36610435682075	2.0308237059490803	0.0	9.35743616944647	1.682396259932201	0.0	9.364626992858739	1.3126479641782836	0.0	9.343614134722245	1.2220330883946557	0.0	9.291176193200457	1.2313946216370524	0.0	9.378176091611023	1.2601608369145383	0.0	9.56650334566568	2.032375990360658	0.0	9.622619978574763	1.683961724179924	0.0	9.662770449674678	1.318142167035447	0.0	9.683530709740094	1.233810233130934	0.0	9.721608215475984	1.2413578465808264	0.0	9.647895245204879	1.2572223577119543	0.0	9.454091151685098	2.5684705105231256	0.0	9.437120222036764	2.7992497523551148	0.0	9.443207945837152	2.665639583955379	0.0	9.279405910935012	2.4829649860956833	0.0	9.27158430244839	2.2754466122220234	0.0	9.409867341234516	2.182944687433726	0.0	9.636770888974565	2.4918455493404523	0.0	9.66706127326214	2.278655753954205	0.0	9.549513560404645	2.1742026645726367	0.0
443	17.72	9.470322838623495	2.0479837280111624	0.0	9.366633093706898	2.0337701383212425	0.0	9.35747896041986	1.6821272014648077	0.0	9.364013945913394	1.3131665268664037	0.0	9.336545171267542	1.2237622579314067	0.0	9.290669376574893	1.2350046655443605	0.0	9.379738769696385	1.259830004243322	0.0	9.566060273308223	2.0337242781072997	0.0	9.620667636850987	1.6836350253231605	0.0	9.660154237848934	1.3171502565436168	0.0	9.682466310944351	1.2379656040017781	0.0	9.722145263395728	1.246143074870284	0.0	9.645446104879818	1.2605961224563313	0.0	9.45247280984208	2.568141014726063	0.0	9.43731887215715	2.798543321096682	0.0	9.440470089521817	2.663734460746665	0.0	9.279685596654087	2.4800427796264755	0.0	9.274363769610842	2.2744471652017295	0.0	9.408159442126673	2.1798593623345015	0.0	9.634206957291482	2.4907447376191807	0.0	9.666029561436867	2.27529329578456	0.0	9.546392013844615	2.1747207381445595	0.0
444	17.76	9.469718964914453	2.0513166251792248	0.0	9.369239502173693	2.0387403666993382	0.0	9.357751102769104	1.6834908565168236	0.0	9.362604884336752	1.3142225222768644	0.0	9.330571278980933	1.2272466078737863	0.0	9.289613381396105	1.2392993701174075	0.0	9.379692996860943	1.2591764464354338	0.0	9.564838020347779	2.036774866983595	0.0	9.617064214787755	1.684725161565393	0.0	9.657507635596177	1.3176384788808932	0.0	9.685387412368947	1.2419739763864053	0.0	9.72524540626815	1.2503323758096885	0.0	9.641559050986992	1.2652591674253824	0.0	9.45309961694186	2.567726767302826	0.0	9.43883742971962	2.797378857617927	0.0	9.437545875244648	2.662228010049864	0.0	9.282312117827106	2.476804834653713	0.0	9.274974982222663	2.2753579542812767	0.0	9.40546265688786	2.177904544331011	0.0	9.63143339665622	2.489033412141389	0.0	9.66440180176041	2.2735151668742097	0.0	9.543289386234036	2.175598060474232	0.0
445	17.8	9.4700841589927	2.0535870847018574	0.0	9.370449295121473	2.0433081091677603	0.0	9.35767434850746	1.687342410462226	0.0	9.362396257373804	1.3142833060829398	0.0	9.32418255933424	1.2251445575223516	0.0	9.286031341136342	1.236211505590899	0.0	9.37830419112888	1.2589107522811696	0.0	9.565385606878724	2.0409271126687596	0.0	9.616035991117158	1.6887322331267203	0.0	9.659165999718486	1.3179087766572808	0.0	9.68871148001005	1.2370442605987366	0.0	9.728750658555033	1.24360909706755	0.0	9.63563677620112	1.262003208203976	0.0	9.456349129099282	2.567516025611146	0.0	9.44117007187332	2.79735971393797	0.0	9.43855268673575	2.662661255866873	0.0	9.284321136552052	2.4797368664515442	0.0	9.271248694792936	2.2795323295856855	0.0	9.40470852078417	2.181391735941178	0.0	9.63340389155259	2.488243672406138	0.0	9.663347322196087	2.2745873554152003	0.0	9.547165250850801	2.176399475059676	0.0
446	17.84	9.470763436127733	2.052729436754794	0.0	9.369053282734722	2.0440434782861048	0.0	9.356402866749766	1.688600896892669	0.0	9.363511939111477	1.3134531353960757	0.0	9.32056929497877	1.221044623186977	0.0	9.282534818586525	1.2319329014898244	0.0	9.379796022929407	1.2595714314760904	0.0	9.566449984047395	2.042337025157269	0.0	9.617644077319106	1.6915355088939203	0.0	9.661639059288634	1.3176637503520259	0.0	9.689489689908061	1.2332878330065522	0.0	9.728830384258282	1.238508751443834	0.0	9.63212487356934	1.2567378646445373	0.0	9.456841862030076	2.566570832400565	0.0	9.441237556046124	2.7965700519468903	0.0	9.440474734206916	2.663334203090528	0.0	9.283935517128514	2.482712303562647	0.0	9.268087805583926	2.2800049615973657	0.0	9.404790791596325	2.183476564008138	0.0	9.635851584263577	2.4882770823368907	0.0	9.663558282082768	2.2763282564316296	0.0	9.55116133842136	2.1749842096674468	0.0
447	17.88	9.47059064586239	2.050690205413678	0.0	9.368166400651432	2.0410784377031304	0.0	9.355477063013819	1.6853713945146267	0.0	9.363158197704392	1.3128701366061404	0.0	9.321747353397908	1.2224700436642735	0.0	9.282801196089979	1.2345147841200987	0.0	9.382651880980937	1.2597700560019132	0.0	9.566032955659892	2.039995321732486	0.0	9.617972913903646	1.690129112832144	0.0	9.66043359335573	1.3181722715232278	0.0	9.689694908392221	1.239110373517469	0.0	9.726403270686534	1.2456397540284256	0.0	9.633554242325419	1.2583040513031931	0.0	9.453000256939127	2.5648478001071586	0.0	9.439115962979503	2.794460443694099	0.0	9.438796041051548	2.662507250431359	0.0	9.282546382284192	2.4790054950469473	0.0	9.269505540878209	2.2741008501355005	0.0	9.403806803656364	2.179494348240846	0.0	9.633194415284677	2.4871901687593003	0.0	9.664692552983691	2.274825816930949	0.0	9.547739410156819	2.171542843202157	0.0
